<svg width="170" height="40" viewBox="0 0 170 40" fill="none" xmlns="http://www.w3.org/2000/svg">
<path d="M42.6881 33.5458C41.9056 33.5458 41.2354 33.2705 40.6774 32.7198C40.1268 32.1692 39.8551 31.5026 39.8623 30.7201C39.8551 29.952 40.1268 29.2963 40.6774 28.7529C41.2354 28.2022 41.9056 27.9269 42.6881 27.9269C43.4271 27.9269 44.0792 28.2022 44.6444 28.7529C45.2168 29.2963 45.5066 29.952 45.5139 30.7201C45.5066 31.2417 45.369 31.7163 45.1009 32.1438C44.84 32.5713 44.4959 32.9119 44.0684 33.1654C43.6481 33.419 43.188 33.5458 42.6881 33.5458Z" fill="black"/>
<path d="M66.5099 11.2032H71.1874L64.9856 33.2307H60.5921L57.932 20.3489L57.155 16.0899L56.3779 20.3489L53.7178 33.2307H49.4439L43.1973 11.2032H48.084L50.998 23.8159L51.6257 27.3278L52.2683 23.8907L54.749 11.2032H59.6058L62.221 23.8159L62.8934 27.3278L63.5659 23.9504L66.5099 11.2032Z" fill="black"/>
<path d="M86.33 6.01628L77.3636 39.3278H73.057L82.0234 6.01628H86.33Z" fill="black"/>
<path d="M1.41221 0.672363L3.22323 8.48527L5.39385 0.672363H6.80605L8.97667 8.48527L10.7877 0.672363H12.213L9.68931 10.2767H8.32287L6.10649 2.3134L3.87703 10.2767H2.51059L0 0.672363H1.41221Z" fill="black"/>
<path d="M15.2767 3.11757C15.7736 3.11757 16.2552 3.23526 16.7216 3.47063C17.188 3.70164 17.5432 4.00238 17.7873 4.37287C18.0226 4.72592 18.1795 5.13782 18.258 5.60855C18.3277 5.93109 18.3626 6.44542 18.3626 7.15152H13.2303C13.2521 7.86198 13.4199 8.43297 13.7337 8.86447C14.0475 9.29162 14.5335 9.5052 15.1917 9.5052C15.8063 9.5052 16.2966 9.30252 16.6627 8.89716C16.8719 8.6618 17.0201 8.38938 17.1073 8.07991H18.2645C18.234 8.33708 18.1316 8.62475 17.9573 8.94293C17.7873 9.25675 17.5955 9.51392 17.3819 9.71441C17.0245 10.0631 16.5821 10.2985 16.0547 10.4205C15.7714 10.4903 15.451 10.5251 15.0936 10.5251C14.2219 10.5251 13.4831 10.2091 12.8772 9.57712C12.2714 8.94075 11.9685 8.05158 11.9685 6.90961C11.9685 5.78508 12.2736 4.87194 12.8838 4.17019C13.494 3.46845 14.2916 3.11757 15.2767 3.11757ZM17.1531 6.21659C17.1051 5.70662 16.994 5.29909 16.8196 4.99398C16.4971 4.42735 15.9588 4.14404 15.2048 4.14404C14.6643 4.14404 14.211 4.34018 13.8449 4.73246C13.4787 5.12038 13.2848 5.61509 13.263 6.21659H17.1531Z" fill="black"/>
<path d="M19.1772 3.27449H20.2952V4.48402C20.3868 4.24865 20.6112 3.96316 20.9687 3.62754C21.3261 3.28756 21.738 3.11757 22.2043 3.11757C22.2261 3.11757 22.2632 3.11975 22.3155 3.12411C22.3678 3.12847 22.4571 3.13719 22.5835 3.15026V4.39248C22.5138 4.37941 22.4484 4.37069 22.3874 4.36633C22.3307 4.36197 22.2675 4.35979 22.1978 4.35979C21.605 4.35979 21.1495 4.55158 20.8314 4.93514C20.5132 5.31434 20.3541 5.75239 20.3541 6.24928V10.2767H19.1772V3.27449Z" fill="black"/>
<path d="M22.9078 0.672363H24.0389V6.24928L27.0595 3.27449H28.5632L25.8826 5.89622L28.7136 10.2767H27.2098L25.0261 6.74616L24.0389 7.64841V10.2767H22.9078V0.672363Z" fill="black"/>
<path d="M29.2078 3.46409C29.4476 3.42486 29.6284 3.28974 29.7505 3.05873C29.8769 2.82772 29.9401 2.56184 29.9401 2.2611C29.9401 2.23059 29.9379 2.20443 29.9336 2.18264C29.9336 2.15649 29.9292 2.12816 29.9205 2.09765H29.2078V0.672363H30.607V1.9865C30.607 2.54441 30.4915 3.0195 30.2605 3.41178C30.0294 3.79971 29.6786 4.022 29.2078 4.07866V3.46409Z" fill="black"/>
<path d="M31.7354 8.07991C31.7703 8.47219 31.8684 8.77294 32.0296 8.98216C32.326 9.36136 32.8403 9.55096 33.5726 9.55096C34.0085 9.55096 34.392 9.45725 34.7233 9.26983C35.0545 9.07805 35.2202 8.78384 35.2202 8.3872C35.2202 8.08645 35.0872 7.85762 34.8214 7.70071C34.6514 7.60482 34.3158 7.49367 33.8145 7.36727L32.8796 7.1319C32.2824 6.98371 31.8422 6.81808 31.5589 6.63502C31.0533 6.31683 30.8005 5.87661 30.8005 5.31434C30.8005 4.65182 31.038 4.11571 31.5131 3.70599C31.9926 3.29628 32.6355 3.09142 33.4418 3.09142C34.4966 3.09142 35.2572 3.40089 35.7236 4.01982C36.0156 4.4121 36.1573 4.83489 36.1486 5.28819H35.0371C35.0153 5.02231 34.9216 4.78041 34.756 4.56247C34.4857 4.25301 34.0172 4.09827 33.3503 4.09827C32.9057 4.09827 32.5679 4.18327 32.3369 4.35326C32.1103 4.52324 31.9969 4.74772 31.9969 5.02667C31.9969 5.33178 32.1473 5.57586 32.4481 5.75893C32.6224 5.86789 32.8796 5.96378 33.2195 6.0466L33.9976 6.2362C34.8432 6.44106 35.4098 6.63938 35.6974 6.83116C36.1551 7.1319 36.3839 7.60482 36.3839 8.2499C36.3839 8.87319 36.1464 9.41149 35.6713 9.86479C35.2006 10.3181 34.4814 10.5447 33.5138 10.5447C32.472 10.5447 31.7332 10.3094 31.2974 9.83864C30.8659 9.36354 30.6349 8.7773 30.6044 8.07991H31.7354Z" fill="black"/>
<path d="M103.332 11.8648L109.021 12.0856L114.224 11.9752C115.565 12.0948 116.236 12.4997 116.236 13.1898C116.004 13.9259 115.588 14.294 114.987 14.294L114.293 14.2388L109.853 14.3492H108.119L104.511 14.1836V14.2388L105.275 17.0544H105.483C106.211 17.0544 107.899 16.8152 110.547 16.3367C111.333 16.3367 111.796 16.7416 111.934 17.5513C111.934 18.2782 111.009 18.7015 109.159 18.8211C109.159 18.9039 108.026 19.0879 105.76 19.3732V19.4284L106.246 21.8576C106.107 22.5569 105.668 22.9065 104.928 22.9065H104.858C103.956 22.9065 103.401 22.2256 103.193 20.8638C102.453 16.9348 101.783 14.432 101.181 13.3554L101.112 13.1898C101.112 12.4629 101.852 12.0212 103.332 11.8648Z" fill="black"/>
<path d="M128.58 24.3838C129.255 25.571 125.49 26.0799 124.922 25.0905C123.927 23.338 122.773 21.0107 121.921 19.2016C119.612 19.6821 118.154 20.0748 115.81 20.3857C115.029 21.7143 113.556 23.5358 112.668 24.8361C112.029 25.8255 108.449 25.882 109.159 24.8361C109.976 23.6206 111.386 22.0763 112.132 20.8326C111.528 20.0694 111.141 18.363 112.171 18.2499C112.348 18.2217 113.686 18.0779 113.899 18.0779C116.03 13.951 117.38 10.7945 118.339 6.30009C118.481 5.76302 118.742 4.484 119.736 4.54053C120.624 4.51227 121.512 4.7384 121.583 5.27547C122.116 9.00669 122.133 12.7779 123.519 16.3113C124.122 16.1699 125.703 15.8755 126.272 15.7059C127.728 15.2819 129.895 17.0392 128.58 17.4349C128.403 17.4632 125.023 18.5844 124.881 18.6127C125.733 20.4783 127.55 22.5748 128.58 24.3838ZM116.895 17.6563C118.244 17.4585 119.594 17.2323 120.944 16.9779C120.305 15.395 120.198 12.5683 119.701 10.9571C119.026 12.7944 117.783 15.8755 116.895 17.6563Z" fill="black"/>
<path d="M137.714 11.1471C138.916 11.1471 139.517 11.5704 139.517 12.4169C139.286 13.0794 138.824 13.4107 138.13 13.4107C136.291 13.4107 134.326 13.6499 132.233 14.1284C132.233 14.524 133.019 17.082 134.592 21.8024V21.8576C134.592 22.4649 134.106 22.8145 133.135 22.9065C132.245 22.9065 131.597 22.0048 131.192 20.2013C130.036 16.9348 129.458 15.0209 129.458 14.4596L124.463 15.0117C123.723 15.0117 123.261 14.6252 123.076 13.8523C123.076 13.0058 124.047 12.5825 125.989 12.5825L136.812 11.1471H137.714Z" fill="black"/>
<path d="M147.533 9.2148C148.505 9.2148 148.99 10.0429 148.99 11.6992C149.117 14.57 149.256 16.0055 149.406 16.0055L149.337 16.7232C149.43 19.1892 149.568 20.8822 149.753 21.8024C149.753 22.3545 149.268 22.7225 148.296 22.9065C147.406 22.9065 146.897 22.3361 146.77 21.1951L146.562 18.0482H146.493C142.284 18.3242 139.972 18.7107 139.555 19.2076L140.11 21.2503C140.11 21.8024 139.625 22.1704 138.654 22.3545C137.763 22.3545 137.185 21.5999 136.919 20.0909C136.85 19.8977 136.572 19.6952 136.087 19.4836C135.809 19.226 135.671 18.9683 135.671 18.7107V18.6003C135.671 18.4622 135.809 18.1494 136.087 17.6617V17.6065C134.931 14.7173 134.352 13.1714 134.352 12.969C134.352 12.4445 134.815 12.0764 135.74 11.8648C136.665 11.8648 137.312 12.6561 137.682 14.2388C138.376 15.9226 138.769 16.7876 138.862 16.8336H138.931C142.134 16.1251 144.608 15.757 146.354 15.7294L146.077 10.8159C146.077 9.74849 146.562 9.2148 147.533 9.2148Z" fill="black"/>
<path d="M148.942 8.77313C149.728 8.77313 150.19 9.1964 150.329 10.0429V10.0981C150.329 11.7912 149.589 15.2325 148.109 20.4221V20.4774C151.601 20.2105 154.561 19.8977 156.989 19.5388C156.064 17.7997 155.37 15.3706 154.908 12.2513C154.769 11.7636 154.653 11.0275 154.561 10.0429C154.561 9.53685 155.023 9.1872 155.948 8.99397C156.735 8.99397 157.22 9.41723 157.405 10.2638C157.96 13.7971 158.561 16.3551 159.209 17.9378C159.995 19.1155 160.388 19.9069 160.388 20.3117C160.388 21.2503 158.353 21.876 154.283 22.1888L146.722 22.9065C145.473 22.6397 144.849 22.1796 144.849 21.5263C146.652 15.4442 147.554 11.5244 147.554 9.76689C147.947 9.10438 148.41 8.77313 148.942 8.77313Z" fill="black"/>
<path d="M157.097 14.9841L158.831 16.9164H159.039C160.392 15.5178 161.224 14.2296 161.536 13.0518V12.9966H161.467C160.091 13.4107 158.634 14.0548 157.097 14.9289V14.9841ZM162.3 10.457C163.502 10.457 164.219 10.733 164.45 11.2851L164.728 12.2237L164.173 13.9903L164.242 14.0456H164.311C165.583 13.4199 166.393 13.107 166.739 13.107C167.63 13.107 168.208 13.5855 168.474 14.5424C168.508 16.6864 168.855 19.1156 169.514 21.83L170 22.9894C169.815 23.7623 169.353 24.1487 168.613 24.1487H168.474C167.41 24.1487 166.693 22.8973 166.323 20.3945C166.138 19.8333 165.93 18.3978 165.699 16.0883H165.491C163.005 17.4317 161.34 18.4622 160.496 19.18C161.236 20.3577 161.606 21.0571 161.606 21.2779V21.3883C161.606 22.0048 161.12 22.3729 160.149 22.4925C159.409 22.4925 158.808 21.922 158.345 20.781C157.108 18.9499 155.767 17.2937 154.322 15.8122L154.044 14.5424C154.044 13.6499 156.287 12.3985 160.773 10.7882C161.132 10.641 161.64 10.5306 162.3 10.457Z" fill="black"/>
<path d="M100.887 24.0107C103.324 24.0107 104.75 24.6395 105.165 25.897C105.242 26.0197 105.28 26.1884 105.28 26.4031V26.5411C105.28 27.5993 104.143 28.9795 101.869 30.6818V30.7278L102.101 30.7738L104.529 30.6818C105.136 30.6818 105.502 31.0191 105.627 31.6939C105.627 32.3074 104.953 32.6141 103.604 32.6141L101.523 32.6601H100.424C100.154 32.6677 100.019 32.6984 100.019 32.7521C100.52 33.2045 100.771 33.5419 100.771 33.7642C100.607 34.3777 100.222 34.6844 99.6148 34.6844H99.4992C98.9692 34.6844 98.2369 34.1323 97.3023 33.0281C96.994 32.9054 96.7628 32.5527 96.6086 31.97C95.8281 30.8351 94.8646 29.0408 93.718 26.5871C93.6024 26.5871 93.5253 26.4184 93.4868 26.081C93.4868 25.7283 93.8337 25.3143 94.5274 24.8388C97.5336 24.2868 99.6533 24.0107 100.887 24.0107ZM96.2039 26.5411C97.3698 28.9412 98.102 30.2754 98.4007 30.5437H98.4586C101.243 28.7495 102.708 27.4306 102.852 26.5871V26.4031C102.852 26.0657 102.178 25.897 100.829 25.897C97.7455 26.1424 96.2039 26.3571 96.2039 26.5411Z" fill="black"/>
<path d="M109.711 22.4925C110.511 22.4925 111.667 23.888 113.18 26.6791L115.376 29.8536C116.725 29.8536 117.4 30.2217 117.4 30.9578C117.4 31.2108 117.13 31.4869 116.59 31.7859L117.284 33.7642C117.284 34.255 116.88 34.5617 116.07 34.6844C115.319 34.6844 114.798 34.025 114.509 32.7061C114.259 32.246 114.085 32.016 113.989 32.016C111.734 32.016 109.287 32.2613 106.647 32.7521C106.474 32.8978 106.339 33.2045 106.242 33.6722C106.088 33.9329 105.761 34.117 105.259 34.2243C104.604 34.2243 104.18 33.8563 103.988 33.1201V33.0281C104.479 31.7399 105.308 30.0377 106.474 27.9213C107.013 26.2497 107.688 24.6241 108.497 23.0446C108.844 22.6765 109.248 22.4925 109.711 22.4925ZM109.769 25.621L108.613 28.7495L107.688 30.5897H107.745L112.775 30.1297V30.0837L109.884 25.621H109.769Z" fill="black"/>
<path d="M120.125 25.0229C122.139 25.0229 123.391 25.3909 123.883 26.1271L123.941 26.4031C123.941 26.8632 123.574 27.1392 122.842 27.2312C121.985 27.0165 121.098 26.9092 120.183 26.9092C118.237 26.9092 117.042 27.3386 116.599 28.1974C116.406 28.5808 116.31 29.0868 116.31 29.7156C116.31 31.1495 116.945 32.1157 118.217 32.6141C118.574 32.7368 118.921 32.7981 119.258 32.7981C120.655 32.7981 122.428 32.0773 124.577 30.6358C125.106 29.869 125.53 29.4856 125.848 29.4856L126.137 29.3936C126.908 29.5469 127.294 29.8536 127.294 30.3137V30.3597C127.294 30.6664 126.908 31.2185 126.137 32.016C124.23 33.3348 122.457 34.163 120.819 34.5004L119.374 34.6844C117.1 34.6844 115.404 33.6876 114.286 31.6939C114.055 31.0958 113.939 30.4057 113.939 29.6236C113.939 27.5686 114.941 26.2037 116.945 25.529C117.842 25.1916 118.901 25.0229 120.125 25.0229Z" fill="black"/>
<path d="M134.759 23.2746C135.569 23.2746 135.973 23.9647 135.973 25.3449C136.079 27.7373 136.195 28.9335 136.32 28.9335L136.262 29.5316C136.34 31.5866 136.455 32.9975 136.609 33.7642C136.609 34.2243 136.205 34.531 135.395 34.6844C134.653 34.6844 134.229 34.209 134.123 33.2582L133.95 30.6358H133.892C130.385 30.8658 128.458 31.1878 128.111 31.6019L128.574 33.3042C128.574 33.7642 128.169 34.071 127.36 34.2243C126.618 34.2243 126.136 33.5956 125.914 32.338C125.856 32.177 125.625 32.0083 125.221 31.8319C124.989 31.6172 124.874 31.4025 124.874 31.1878V31.0958C124.874 30.9808 124.989 30.7201 125.221 30.3137V30.2677C124.257 27.86 123.775 26.5718 123.775 26.4031C123.775 25.966 124.161 25.6593 124.931 25.4829C125.702 25.4829 126.242 26.1424 126.55 27.4613C127.128 28.8645 127.456 29.5853 127.533 29.6236H127.591C130.26 29.0332 132.322 28.7265 133.777 28.7035L133.545 24.6088C133.545 23.7193 133.95 23.2746 134.759 23.2746Z" fill="black"/>
<path d="M147.688 25.0689C148.498 25.2299 148.902 25.552 148.902 26.035C149.134 27.0932 149.249 28.4888 149.249 30.2217V30.9118C149.249 31.7706 149.384 32.7214 149.654 33.7642C149.654 34.278 149.23 34.5847 148.382 34.6844C147.852 34.6844 147.467 34.4083 147.226 33.8563C146.956 32.8058 146.821 31.0268 146.821 28.5194H146.763C145.578 29.6159 144.48 30.9195 143.468 32.43C143.16 33.1355 142.678 33.4882 142.023 33.4882C141.194 33.4882 140.019 32.384 138.496 30.1757C138.198 29.7846 138.005 29.5853 137.918 29.5776C137.803 30.0837 137.687 31.2185 137.571 32.9821C137.263 33.4115 136.82 33.6262 136.242 33.6262C135.702 33.6262 135.336 33.3195 135.143 32.7061L135.548 28.9335L135.375 26.9092C135.375 26.3878 135.856 26.0504 136.82 25.897C137.697 25.897 139.2 27.3692 141.329 30.3137L141.792 30.8198H141.849C141.965 30.7584 142.331 30.283 142.948 29.3936L146.706 25.2989C146.869 25.2069 147.197 25.1302 147.688 25.0689Z" fill="black"/>
<path d="M151.642 23.3666H152.047C153.425 23.3666 154.793 24.4248 156.151 26.5411L157.192 29.1175C157.818 29.1175 158.281 29.3936 158.579 29.9456C158.579 30.2677 158.271 30.6051 157.654 30.9578V31.0038C157.886 32.4914 158.001 33.4269 158.001 33.8103C158.001 34.3087 157.577 34.6 156.729 34.6844C156.084 34.6844 155.718 34.3163 155.631 33.5802L155.284 31.3259H155.226C154.456 31.3259 152.721 31.7553 150.023 32.6141V32.7061L150.312 33.3962C150.158 33.9789 149.792 34.2703 149.214 34.2703V34.3163C148.328 34.3163 147.769 33.5956 147.537 32.154L147.48 31.6019C147.48 28.6114 148.231 26.1731 149.734 24.2868C150.467 23.6733 151.102 23.3666 151.642 23.3666ZM149.85 30.5897H149.908C151.151 30.2447 152.789 29.8613 154.822 29.4396C154.311 27.8447 153.81 26.7865 153.319 26.2651C152.712 25.5903 152.249 25.2529 151.931 25.2529C151.334 25.2529 150.717 26.4951 150.081 28.9795C149.965 29.4089 149.888 29.9456 149.85 30.5897Z" fill="black"/>
<path d="M166.005 23.3234C166.035 22.3105 168.995 21.8159 168.965 22.7345C168.817 27.8461 168.669 32.9577 168.225 38.0457C168.373 38.5639 167.913 39.0657 166.995 39.0422C166.255 39.0657 165.545 38.8773 165.604 38.4533C164.42 33.7893 161.964 28.2937 159.625 23.9123C159.684 26.8332 160.099 30.7035 159.655 33.5773C159.536 34.5902 156.841 34.6358 156.989 33.7642C157.699 28.7469 157.02 23.6368 156.488 18.6194C156.488 18.5723 156.488 18.5487 156.488 18.5252C156.488 18.5016 156.488 18.4781 156.488 18.4545C156.724 17.6772 159.3 17.5123 159.625 18.2661C162.112 22.1528 164.229 27.3986 166.005 31.5679C166.124 29.1417 165.946 25.7497 166.005 23.3234ZM166.463 17.8892C166.463 16.8763 169.659 16.7349 169.659 17.6536C169.659 18.7136 169.659 19.7501 169.63 20.7865C169.63 21.7994 166.433 21.9408 166.463 21.0221C166.463 19.9621 166.463 18.9256 166.463 17.8892Z" fill="black"/>
</svg>
